Coordinates
version=1
nRows=9
nColumns=24
inDegrees=yes

Units are S.I. units (second, meters, Newtons, ...)
Angles are in degrees.

endheader
time	pelvis_tilt	pelvis_list	pelvis_rotation	pelvis_tx	pelvis_ty	pelvis_tz	hip_flexion_r	hip_adduction_r	hip_rotation_r	knee_angle_r	ankle_angle_r	subtalar_angle_r	mtp_angle_r	hip_flexion_l	hip_adduction_l	hip_rotation_l	knee_angle_l	ankle_angle_l	subtalar_angle_l	mtp_angle_l	lumbar_extension	lumbar_bending	lumbar_rotation
      0.01000000	     91.11425921	     33.79833928	    -92.38804298	      1.02406094	      0.28552639	      1.07707402	     21.12949460	     -5.50743335	     -1.61861041	    -21.31453322	    -13.92094751	      0.00000000	      0.00000000	     11.10242857	     -7.37063652	     -6.40850893	    -73.30734136	    -10.59454551	      0.00000000	      0.00000000	      0.00000000	      0.00000000	      0.00000000
      0.02000000	     91.11784314	     33.73232244	    -92.43044717	      1.02388247	      0.28536221	      1.07659718	     21.20900757	     -5.44350882	     -1.44030459	    -21.34217838	    -13.62225868	      0.00000000	      0.00000000	     11.03238012	     -7.39000855	     -6.45133535	    -73.34759789	    -10.58700785	      0.00000000	      0.00000000	      0.00000000	      0.00000000	      0.00000000
      0.03000000	     91.11772910	     33.68426544	    -92.45331327	      1.02389661	      0.28523679	      1.07648937	     21.22665435	     -5.38403132	     -1.14694822	    -21.41350872	    -13.19596132	      0.00000000	      0.00000000	     10.99289247	     -7.41647013	     -6.47530122	    -73.38144542	    -10.57465761	      0.00000000	      0.00000000	      0.00000000	      0.00000000	      0.00000000
      0.04000000	     91.11099757	     33.66579634	    -92.45377227	      1.02402682	      0.28510155	      1.07653934	     21.16843003	     -5.33210693	     -0.72801729	    -21.53449498	    -12.62821686	      0.00000000	      0.00000000	     10.98696005	     -7.44861704	     -6.47577128	    -73.40816104	    -10.55741181	      0.00000000	      0.00000000	      0.00000000	      0.00000000	      0.00000000
      0.05000000	     91.09632822	     33.68219847	    -92.43351470	      1.02415216	      0.28489861	      1.07646424	     21.03834618	     -5.28933657	     -0.20119665	    -21.69872329	    -11.93373772	      0.00000000	      0.00000000	     11.00923062	     -7.48343388	     -6.45117894	    -73.42921103	    -10.53657859	      0.00000000	      0.00000000	      0.00000000	      0.00000000	      0.00000000
      0.06000000	     91.07810186	     33.71574606	    -92.39855702	      1.02421674	      0.28463991	      1.07622523	     20.87730151	     -5.25243664	      0.37450507	    -21.87770379	    -11.17218562	      0.00000000	      0.00000000	     11.04409763	     -7.51687521	     -6.40686720	    -73.44863950	    -10.51524875	      0.00000000	      0.00000000	      0.00000000	      0.00000000	      0.00000000
      0.07000000	     91.06428787	     33.73508248	    -92.35765228	      1.02426983	      0.28441903	      1.07606072	     20.74484507	     -5.21697500	      0.90942016	    -22.03225457	    -10.44457110	      0.00000000	      0.00000000	     11.07406571	     -7.54569145	     -6.35559231	    -73.47024022	    -10.49749678	      0.00000000	      0.00000000	      0.00000000	      0.00000000	      0.00000000
      0.08000000	     91.05812786	     33.72973295	    -92.32204213	      1.02435169	      0.28430152	      1.07608634	     20.67228616	     -5.18613239	      1.31108874	    -22.13914456	     -9.87147483	      0.00000000	      0.00000000	     11.09144834	     -7.56870736	     -6.31366281	    -73.49348529	    -10.48683571	      0.00000000	      0.00000000	      0.00000000	      0.00000000	      0.00000000
      0.09000000	     91.05585039	     33.71839107	    -92.30263100	      1.02443359	      0.28426806	      1.07617417	     20.64950083	     -5.17039939	      1.51044638	    -22.19868405	     -9.56151374	      0.00000000	      0.00000000	     11.10063208	     -7.58591419	     -6.29439965	    -73.51263432	    -10.48503362	      0.00000000	      0.00000000	      0.00000000	      0.00000000	      0.00000000
